<?xml version="1.0" standalone="no"?>
<!DOCTYPE svg PUBLIC "-//W3C//DTD SVG 20010904//EN"
 "http://www.w3.org/TR/2001/REC-SVG-20010904/DTD/svg10.dtd">
<svg version="1.0" xmlns="http://www.w3.org/2000/svg"
 width="512.000000pt" height="512.000000pt" viewBox="0 0 512.000000 512.000000"
 preserveAspectRatio="xMidYMid meet">
<metadata>
Created by potrace 1.14, written by Peter Selinger 2001-2017
</metadata>
<g transform="translate(0.000000,512.000000) scale(0.100000,-0.100000)"
fill="#000000" stroke="none">
<path d="M2836 4539 c-21 -5 -65 -23 -97 -40 -69 -37 -123 -91 -289 -289 -25
-29 -50 -58 -55 -64 -6 -6 -46 -54 -90 -106 -44 -52 -82 -97 -85 -100 -3 -3
-28 -32 -55 -65 -28 -33 -54 -65 -60 -71 -5 -6 -31 -35 -57 -65 -25 -30 -56
-65 -68 -79 -11 -14 -29 -34 -38 -45 -103 -123 -182 -215 -204 -240 -36 -41
-56 -64 -103 -121 -22 -26 -44 -52 -50 -58 -5 -6 -46 -54 -90 -106 -44 -52
-90 -106 -103 -120 -32 -34 -88 -155 -100 -215 -10 -45 -9 -185 0 -225 33
-134 114 -249 223 -315 38 -23 159 -69 328 -125 l69 -22 -7 -37 c-4 -20 -9
-47 -11 -61 -2 -14 -7 -41 -10 -60 -3 -19 -8 -48 -11 -65 -3 -16 -20 -122 -39
-235 -19 -113 -37 -218 -39 -235 -11 -71 -15 -93 -24 -145 -6 -30 -13 -68 -17
-85 -11 -52 -8 -178 6 -235 32 -136 134 -264 246 -309 86 -35 191 -39 273 -11
117 39 166 82 316 275 17 21 44 56 60 76 17 20 40 50 51 66 12 15 75 96 140
179 66 83 130 166 144 184 14 18 63 81 108 139 46 58 103 130 125 159 23 30
64 82 91 115 27 34 94 121 149 192 56 72 104 132 108 135 14 10 76 117 92 157
68 174 29 393 -96 529 -70 77 -128 109 -314 174 -158 54 -168 59 -165 81 5 31
196 730 228 833 83 267 -3 523 -213 627 -55 28 -79 33 -147 35 -45 2 -98 -1
-120 -7z m138 -283 c70 -29 104 -129 81 -235 -7 -31 -63 -238 -124 -461 -62
-223 -121 -438 -132 -478 -24 -87 -19 -147 17 -209 33 -57 61 -74 199 -122
279 -97 296 -104 328 -135 62 -58 86 -164 57 -242 -9 -24 -77 -120 -137 -194
-7 -8 -58 -73 -114 -145 -56 -71 -112 -143 -126 -160 -13 -16 -30 -37 -36 -45
-7 -9 -34 -45 -62 -80 -27 -36 -53 -69 -57 -75 -4 -5 -20 -26 -36 -45 -15 -19
-116 -147 -223 -284 -382 -490 -379 -488 -446 -490 -51 -1 -87 27 -114 88 -26
61 -24 100 19 346 37 213 39 225 46 275 4 22 8 51 11 65 2 14 7 39 10 55 3 17
19 111 36 210 35 202 37 241 14 302 -29 75 -73 102 -292 177 -233 80 -244 85
-279 132 -52 68 -62 169 -24 244 14 28 134 178 160 200 3 3 28 32 55 65 28 33
55 65 60 71 23 26 65 74 140 164 44 52 82 97 85 100 3 3 30 34 60 70 83 98 92
108 171 201 72 82 95 109 182 214 23 27 62 72 86 100 24 27 53 61 65 75 172
205 186 220 226 241 43 22 52 23 94 5z"/>
</g>
</svg>
