<svg width="20" height="20" viewBox="0 0 20 20" fill="none" xmlns="http://www.w3.org/2000/svg">
<path d="M9.93305 5.68305C9.689 5.92715 9.689 6.32285 9.93305 6.56695L12.7411 9.375H5.625C5.2798 9.375 5 9.6548 5 10C5 10.3452 5.2798 10.625 5.625 10.625H12.7411L9.93305 13.4331C9.689 13.6772 9.689 14.0728 9.93305 14.3169C10.1772 14.561 10.5728 14.561 10.8169 14.3169L14.6919 10.4419C14.936 10.1978 14.936 9.80215 14.6919 9.55805L10.8169 5.68305C10.5728 5.439 10.1772 5.439 9.93305 5.68305ZM10 0C4.47715 0 0 4.47715 0 10C0 15.5229 4.47715 20 10 20C15.5229 20 20 15.5229 20 10C20 4.47715 15.5229 0 10 0ZM1.25 10C1.25 5.1675 5.1675 1.25 10 1.25C14.8325 1.25 18.75 5.1675 18.75 10C18.75 14.8325 14.8325 18.75 10 18.75C5.1675 18.75 1.25 14.8325 1.25 10Z" fill="#13429A"/>
</svg>
